<svg width="68" height="55" viewBox="0 0 68 55" fill="none" xmlns="http://www.w3.org/2000/svg">
<g clip-path="url(#clip0_17_21)">
<path d="M51.2262 54.687C44.2222 54.687 35.2907 50.1613 27.5164 42.5726C27.166 43.5469 26.7462 44.4872 26.3264 45.392C23.63 50.8226 19.7775 53.7808 15.47 53.7808C11.1624 53.7808 7.23935 50.8567 4.54289 45.5662C2.01904 40.7629 0.653809 34.2532 0.653809 27.3258C0.653809 16.0129 4.40165 6.4743 10.4602 2.40168C14.6631 -0.417724 19.9514 -0.766057 25.7301 1.39204C30.6327 3.2018 35.921 6.82263 41.14 11.9389C41.595 10.7211 42.156 9.50192 42.8203 8.35347C45.5521 3.55013 49.3693 0.904895 53.5369 0.904895C61.8721 0.904895 68.1412 12.2532 68.1412 27.3258C68.1412 33.8695 66.9512 39.858 64.6745 44.6967C63.6937 46.8901 62.3285 48.8741 60.6821 50.6485C59.2463 52.2147 57.4247 53.3985 55.3938 54.0951C54.039 54.4864 52.6362 54.6857 51.2262 54.687ZM28.6018 39.0919C38.3729 49.2564 48.8789 52.8066 54.413 50.9968C57.2494 50.0566 59.8413 47.3419 61.7322 43.3034C63.7983 38.9178 64.8837 33.3824 64.8837 27.3258C64.8837 20.921 63.6584 14.9679 61.3817 10.5469C59.245 6.4049 56.4792 4.10668 53.5369 4.10668C49.2987 4.10668 45.6214 8.31811 43.6612 14.5501C51.5413 23.1825 56.725 33.7307 56.2687 40.4839C56.0934 42.921 55.2186 44.8355 53.7121 46.0887L53.5722 46.1935C51.8905 47.3079 49.9303 47.3773 48.004 46.3323C42.9956 43.687 38.9339 33.9743 38.9339 24.75C38.9339 21.6176 39.2843 18.4839 40.0546 15.421C29.4073 4.42097 19.04 0.556562 12.2805 5.08228C7.16742 8.49359 3.87465 17.2307 3.87465 27.3258C3.87465 40.3792 8.95242 50.5791 15.432 50.5791C19.4597 50.5791 22.9617 46.4017 24.9586 39.9614C19.7749 34.1825 15.8531 27.7436 13.8916 21.7551C12.0007 15.9068 12.2112 11.1729 14.4866 8.80525C15.9577 7.27311 18.1285 6.89073 20.4405 7.83097C25.2031 9.74549 30.0717 16.9518 30.0717 27.0116C30.0717 31.0842 29.5813 35.1228 28.6005 39.0906L28.6018 39.0919ZM42.751 18.3792C42.3722 20.4814 42.1848 22.6138 42.1913 24.75C42.1913 33.4872 46.0791 41.6324 49.5458 43.4775C50.5959 44.0341 51.2615 43.8259 51.7166 43.5129C52.4868 42.8516 52.9419 41.7372 53.0478 40.2757C53.3983 34.8111 49.16 25.9338 42.751 18.3805V18.3792ZM18.0252 10.5469C17.8046 10.5456 17.5859 10.5879 17.3816 10.6715C17.1774 10.7551 16.9917 10.8783 16.8352 11.0341C15.7838 12.1131 15.2241 15.3162 16.9751 20.7455C18.5862 25.7583 21.7377 31.1195 25.9407 36.097C26.5357 33.0681 26.8155 30.0405 26.7815 26.9762C26.8168 17.4036 22.1588 12.0083 19.2165 10.8245C18.8307 10.6504 18.4463 10.5823 18.0252 10.5469Z" fill="#47D7AC"/>
</g>
<defs>
<clipPath id="clip0_17_21">
<rect width="68" height="55" fill="white"/>
</clipPath>
</defs>
</svg>
